PathFileType	4	(X/Y/Z)	/home/abdul/Desktop/myosuite/custom_workspace/IK/output/S13_12_2.trc
DataRate	CameraRate	NumFrames	NumMarkers	Units	OrigDataRate	OrigDataStartFrame	OrigNumFrames
200.0	200.0	33	3	mm	200.0	1228	1403
Frame#	Time	V_Shoulder			V_Elbow			V_Wrist		
		X1	Y1	Z1	X2	Y2	Z2	X3	Y3	Z3

1228	6.135	-92.68517361342448	615.8657910976259	331.3163364816583	-240.0164834499121	519.0612015366548	22.722899432889314	-259.6297662170236	252.456148371907	47.578266949220286
1229	6.14	-92.68814908540394	615.8565357327932	331.2981336150693	-240.01781905449636	519.0317555217765	22.68355006767429	-259.5967826872311	252.46372214641406	47.52566658809834
1230	6.145	-92.68939632563615	615.8472709711683	331.2803629749297	-240.01865611723068	519.0046045333928	22.64489422536905	-259.56450827260363	252.47165034777254	47.47671272568309
1231	6.15	-92.68893977732633	615.8380167092212	331.2630164611606	-240.01905433449645	518.9797568741468	22.606951189565148	-259.5330688006916	252.47991477311876	47.43117520322653
1232	6.155	-92.68680521497754	615.8287924436974	331.2460857403509	-240.01907336319036	518.9572160498428	22.569739739936114	-259.5025788163125	252.48849643918294	47.38882464406066
1233	6.16	-92.68301970703037	615.8196172297319	331.229562261558	-240.01877281055786	518.9369809017439	22.533278164590715	-259.47314192226474	252.49737570240862	47.34943313480898
1234	6.165	-92.67761157712442	615.8105096402711	331.21343727216913	-240.01821221097555	518.919045743152	22.49758426419036	-259.44485113176023	252.50653237376127	47.31277489047211
1235	6.17	-92.67061036405754	615.8014877269264	331.19770183377153	-240.0174509899571	518.9034005001585	22.462675347616138	-259.4177892312798	252.51594582810725	47.27862690066125
1236	6.175	-92.66204678051974	615.7925689823713	331.1823468379758	-240.01654841573043	518.8900308564514	22.428568219050966	-259.39202915256647	252.52559510808422	47.24676955438872
1237	6.18	-92.65195267068049	615.7837703043962	331.1673630221435	-240.0155635388041	518.8789184020534	22.395279156424106	-259.3676343524888	252.53545902242325	47.21698724097455
1238	6.185	-92.6403609667088	615.7751079617268	331.15274098496644	-240.01455512000888	518.8700407858591	22.36282388124754	-259.3446591995221	252.54551623871845	47.189068924787904
1239	6.19	-92.62730564430736	615.7665975617116	331.1384712018508	-240.0135815475632	518.8633718718296	22.331217519956077	-259.32314936561454	252.55574537067199	47.16280869171331
1240	6.195	-92.6128216773413	615.7582540199745	331.12454404005945	-240.01270074377257	518.8588818986784	22.300474556945133	-259.30314222222563	252.5661250598729	47.13800626541018
1241	6.2	-92.5969449916444	615.7500915321274	331.1109497735691	-240.01197006202892	518.8565376428826	22.27060877958064	-259.2846672393461	252.57663405219452	47.114467491620914
1242	6.205	-92.57971241808434	615.7421235476314	331.09767859759995	-240.01144617482984	518.8563025848192	22.241633215534502	-259.2677463863336	252.5872512689196	47.09200478897495
1243	6.21	-92.56116164497	615.7343627458881	331.0847206427806	-240.0111849535838	518.8581370778224	22.213560062875228	-259.2523945334234	252.5979558727223	47.07043756493224
1244	6.215	-92.54133116988216	615.726821014637	331.07206598891054	-240.01124134101468	518.8619985199268	22.18640061341679	-259.23861985280155	252.60872732865573	47.04959259570944
1245	6.22	-92.5202602510105	615.7195094307299	331.0597046782893	-240.01166921701636	518.8678415280508	22.160165169898363	-259.2264242181577	252.6195454603079	47.029304369232264
1246	6.225	-92.49798885807705	615.7124382433448	331.04762672857976	-240.01252125884554	518.8756181143485	22.13486295763306	-259.2158036016672	252.63039050130243	47.00941539035908
1247	6.23	-92.47455762292783	615.7056168596968	331.0358221451821	-240.01384879657058	518.8852778644421	22.110502031324554	-259.2067484673848	252.64124314232996	46.989776447820056
1248	6.235	-92.45000778987155	615.699053833295	331.0242809330914	-240.01570166472075	518.8967681172228	22.08708917780619	-259.1992441600712	252.65208457390497	46.97024684251453
1249	6.24	-92.42438116584377	615.6927568547852	331.0129931082215	-240.018128051102	518.9100341458957	22.064629815507196	-259.19327128850915	252.66289652504742	46.95069457700251
1250	6.245	-92.39772007047425	615.6867327454157	331.00194870817677	-240.02117434376112	518.925019339919	22.04312789149474	-259.1888061024078	252.6736612980929	46.93099650621666
1251	6.25	-92.37006728613251	615.68098745315	330.9911378024585	-240.0248849770929	518.9416653874778	22.022585776978364	-259.18582086203764	252.68436179983607	46.91103844960511
1252	6.255	-92.3414660080258	615.6755260514465	330.98055050209683	-240.02930227809196	518.9599124581121	22.003004162194724	-259.18428419978204	252.6949815692123	46.890715265093355
1253	6.26	-92.31195979442147	615.6703527407134	330.97017696869995	-240.0344663137515	518.9796993851095	21.98438195161489	-259.1841614728386	252.7055048017204	46.86993088542471
1254	6.265	-92.28159251706406	615.6654708524412	330.9600074229186	-240.04041474061057	519.0009638472566	21.96671616043412	-259.1854151063524	252.71591637078672	46.848598317601926
1255	6.27	-92.25040831185447	615.6608828560057	330.9500321523255	-240.04718265744216	519.0236425495375	21.950001813314334	-259.18800492631556	252.72620184626555	46.82663960630771
1256	6.275	-92.21845152985763	615.6565903681243	330.94024151871275	-240.05480246206312	519.0476714023569	21.934231846352898	-259.19188848161735	252.73634751026628	46.803985762328026
1257	6.28	-92.18576668870115	615.6525941649421	330.93062596481485	-240.06330371322946	519.0729856988626	21.919397013247416	-259.1970213546864	252.7463403704894	46.780576657139335
1258	6.285	-92.15239842442615	615.6488941967149	330.92117602046534	-240.07271299855907	519.0995202899348	21.905485796615114	-259.2033574602194	252.75616817124785	46.75636088494849
1259	6.29	-92.11839144384801	615.6454896050436	330.91188230820165	-240.0830538093973	519.1272097564168	21.892484325407306	-259.2108493315492	252.76581940234058	46.73129559359212
1260	6.295	-92.08379047748245	615.6423787426124	330.9027355483331	-240.0943464235105	519.1559885781509	21.880376299334547	-259.21944839426095	252.7752833059359	46.70534628581035
